<?xml version="1.0" encoding="UTF-8" standalone="no"?>
<svg
   xmlnsDc="http://purl.org/dc/elements/1.1/"
   xmlnsSvg="http://www.w3.org/2000/svg"
   xmlns="http://www.w3.org/2000/svg"
   id="svg929"
   version="1.1"
   viewBox="0 0 66.329559 9.4337899"
   height="9.4337902mm"
   width="66.329559mm">
  <defs
     id="defs923" />
  <g
     transform="translate(-58.532633,-153.1873)"
     id="layer1">
    <path
       d="m 99.476827,153.1875 c -0.4696,0 -0.911095,0.0997 -1.339848,0.30078 h -0.002 c -0.429038,0.19919 -0.797369,0.46606 -1.109375,0.80469 -0.30685,0.33337 -0.553537,0.73526 -0.74414,1.21289 -0.185047,0.47418 -0.279297,0.96725 -0.279297,1.48437 V 162 c 0,0.17171 0.05035,0.29217 0.173828,0.41992 0.127042,0.12276 0.250163,0.17383 0.421875,0.17383 0.173342,0 0.291739,-0.0476 0.416016,-0.17187 0.12959,-0.12955 0.177781,-0.24994 0.177781,-0.42188 v -5.00977 c 0,-0.69984 0.220806,-1.32545 0.654297,-1.82812 0.432851,-0.50591 1.000314,-0.78516 1.630863,-0.78516 0.630523,0 1.196383,0.27962 1.628903,0.78516 0.43317,0.50229 0.65625,1.12767 0.65625,1.82812 V 162 c 0,0.17167 0.0504,0.29215 0.17383,0.41992 0.12774,0.12347 0.24822,0.17383 0.41992,0.17383 0.17334,0 0.29175,-0.0476 0.41602,-0.17187 0.13031,-0.13032 0.17969,-0.25152 0.17969,-0.42188 v -5.00977 c 0,-0.69984 0.2208,-1.32545 0.65429,-1.82812 0.43254,-0.50554 0.99838,-0.78516 1.62891,-0.78516 0.63053,0 1.198,0.27925 1.63086,0.78516 0.43349,0.50267 0.65431,1.12828 0.65429,1.82812 V 162 c 0,0.17167 0.0504,0.29214 0.17383,0.41992 0.12704,0.12276 0.25017,0.17383 0.42188,0.17383 0.17333,0 0.29175,-0.0476 0.41601,-0.17187 0.12955,-0.12955 0.17774,-0.24993 0.17774,-0.42188 v -3.29297 c 1e-5,-0.16395 0.13292,-0.29686 0.29687,-0.29687 h 4.79102 c 0.11405,-6e-5 0.21805,0.0652 0.26758,0.16796 l 1.80078,3.76368 c 0.0801,0.16639 0.26063,0.27954 0.44531,0.27929 h 6.04492 c 0.18469,2.5e-4 0.36518,-0.1129 0.44532,-0.27929 l 2.01367,-4.21289 c 0.0633,-0.13231 0.0633,-0.29152 0,-0.42383 l -2.01367,-4.21094 c -0.0805,-0.16594 -0.26089,-0.27781 -0.44532,-0.27734 h -6.04492 c -0.18443,-4.7e-4 -0.36483,0.1114 -0.44531,0.27734 l -1.80078,3.76367 c -0.0495,0.10274 -0.15353,0.16803 -0.26758,0.16797 h -4.79102 c -0.16395,-1e-5 -0.29686,-0.13292 -0.29687,-0.29687 v -0.13868 c 0,-0.5172 -0.0928,-1.00938 -0.28125,-1.48242 -6.7e-4,-6.6e-4 -10e-4,-0.001 -0.002,-0.002 -0.18587,-0.47623 -0.43463,-0.87666 -0.7461,-1.21094 -6.8e-4,-0.001 -0.001,-0.003 -0.002,-0.004 -0.30789,-0.33829 -0.67326,-0.60385 -1.10547,-0.80274 -6.7e-4,-6.6e-4 -10e-4,-0.001 -0.002,-0.002 -0.42381,-0.20055 -0.86634,-0.29882 -1.33594,-0.29883 -0.51984,0 -1.00204,0.11849 -1.46094,0.35742 -0.46244,0.24078 -0.8533,0.56776 -1.18359,0.99024 -0.11886,0.15287 -0.34989,0.15287 -0.46875,0 -0.33031,-0.42248 -0.72115,-0.74946 -1.1836,-0.99024 -0.4589,-0.23893 -0.941103,-0.35742 -1.460933,-0.35742 z m -38.435811,0.0293 c -0.184429,-4.7e-4 -0.364833,0.1114 -0.445313,0.27734 l -2.015625,4.21094 c -0.06326,0.13231 -0.06326,0.29152 0,0.42383 l 2.015625,4.21289 c 0.08013,0.16639 0.260627,0.27954 0.445313,0.27929 h 6.044922 c 0.184684,2.5e-4 0.365179,-0.1129 0.445312,-0.27929 l 1.800781,-3.76368 c 0.04953,-0.10274 0.153528,-0.16802 0.267578,-0.16796 h 5.035157 c 0.163956,0 0.296869,0.13291 0.296875,0.29687 v 3.29883 c 0,0.17335 0.0476,0.29174 0.171875,0.41602 0.124267,0.12426 0.242663,0.17187 0.416015,0.17187 0.173336,0 0.291741,-0.0476 0.416016,-0.17187 0.124272,-0.12428 0.171875,-0.24267 0.171875,-0.41602 v -8.125 c 0,-0.17335 -0.04761,-0.29176 -0.171875,-0.41602 -0.12427,-0.12426 -0.242672,-0.17187 -0.416016,-0.17187 -0.173319,0 -0.29173,0.0476 -0.416015,0.17187 -0.124262,0.12426 -0.171875,0.24267 -0.171875,0.41602 v 3.24805 c -6e-6,0.16396 -0.132919,0.29687 -0.296875,0.29687 h -5.035157 c -0.114053,6e-5 -0.218054,-0.0652 -0.267578,-0.16797 l -1.800781,-3.76367 c -0.08048,-0.16594 -0.260885,-0.27781 -0.445312,-0.27734 z m 17.763801,0.0762 c -0.173344,0 -0.291744,0.0476 -0.416015,0.17187 -0.124262,0.12426 -0.171875,0.24267 -0.171875,0.41602 v 8.125 c 0,0.17335 0.0476,0.29174 0.171875,0.41602 0.124267,0.12426 0.242663,0.17187 0.416015,0.17187 h 2.316407 c 0.581869,1e-5 1.130136,-0.12044 1.658203,-0.36328 0.532914,-0.24895 0.984815,-0.57697 1.367187,-0.99024 6.64e-4,-6.7e-4 0.0013,-0.001 0.002,-0.002 0.386168,-0.4132 0.694501,-0.90421 0.925782,-1.48437 0.229727,-0.57627 0.34375,-1.17783 0.34375,-1.81055 0,-0.63272 -0.114023,-1.23428 -0.34375,-1.81055 -0.231281,-0.58016 -0.539618,-1.07118 -0.925782,-1.48437 -6.7e-4,-6.6e-4 -0.0013,-10e-4 -0.002,-0.002 -0.382109,-0.41298 -0.833073,-0.73966 -1.365234,-0.98437 h -0.002 c -0.527704,-0.24652 -1.076884,-0.36914 -1.658203,-0.36914 z m 10.734506,0 c -0.506431,0 -0.968312,0.11681 -1.40039,0.35351 -0.428226,0.23696 -0.761513,0.5539 -1.011719,0.96094 -0.244259,0.40057 -0.363281,0.82806 -0.363281,1.30469 0,0.47657 0.120082,0.90704 0.365234,1.3125 0.250117,0.40231 0.582449,0.71864 1.009766,0.95508 0.431522,0.2364 0.893254,0.35156 1.40039,0.35156 h 0.59961 0.04297 1.195313 c 0.418985,0 0.806463,0.14486 1.109375,0.41797 0.304974,0.26758 0.482422,0.63223 0.482422,1.02539 0,0.395 -0.178106,0.76151 -0.484375,1.0332 -0.303757,0.2689 -0.690499,0.40821 -1.107422,0.40821 h -3.826172 c -0.173354,0 -0.291749,0.0476 -0.416016,0.17187 -0.123475,0.12347 -0.171875,0.24462 -0.171875,0.41797 0,0.17335 0.0476,0.29174 0.171875,0.41602 0.124268,0.12426 0.242662,0.17187 0.416016,0.17187 h 3.826172 c 0.506442,0 0.962918,-0.11714 1.390625,-0.35352 0.429135,-0.23715 0.759816,-0.5505 1.005859,-0.95312 6.63e-4,-6.7e-4 0.0013,-0.001 0.002,-0.002 0.249366,-0.40569 0.369141,-0.83367 0.369141,-1.31055 0,-0.46914 -0.117989,-0.89171 -0.359375,-1.28906 -3e-6,-6.7e-4 -3e-6,-0.001 0,-0.002 -0.238831,-0.39929 -0.55813,-0.71088 -0.974609,-0.94726 h -0.002 c -0.413738,-0.23855 -0.860681,-0.36279 -1.357422,-0.375 h -0.03711 c -0.01968,-5e-5 -0.03931,-0.002 -0.05859,-0.006 h -1.816406 c -0.418007,0 -0.806154,-0.14071 -1.113281,-0.4082 -0.0013,-0.001 -0.0026,-0.003 -0.0039,-0.004 -0.302334,-0.2726 -0.47461,-0.63858 -0.47461,-1.03125 0,-0.39267 0.17288,-0.7585 0.476563,-1.02734 0.307583,-0.27285 0.697344,-0.41407 1.115234,-0.41407 h 3.515625 c 0.173351,0 0.294489,-0.0484 0.417969,-0.17187 0.123485,-0.12349 0.171875,-0.24462 0.171875,-0.41797 0,-0.17335 -0.04761,-0.29176 -0.171875,-0.41602 -0.123484,-0.12348 -0.244626,-0.17187 -0.417969,-0.17187 z m -28.008073,0.91015 c 0.0026,-3e-5 0.0052,-3e-5 0.0078,0 h 5.048829 c 0.114053,-6e-5 0.218054,0.0652 0.267578,0.16797 l 1.636719,3.41797 c 0.03926,0.0815 0.03926,0.17636 0,0.25782 l -1.636719,3.41992 c -0.04952,0.10274 -0.153525,0.16803 -0.267578,0.16797 H 61.53905 c -0.114053,6e-5 -0.218054,-0.0652 -0.267578,-0.16797 l -1.636718,-3.41992 c -0.03926,-0.0815 -0.03926,-0.17636 0,-0.25782 l 1.636718,-3.41797 c 0.04827,-0.10024 0.148544,-0.16508 0.259766,-0.16797 z m 55.26784,0 c 0.003,-4e-5 0.005,-4e-5 0.008,0 h 5.05079 c 0.11405,-5e-5 0.21805,0.0652 0.26757,0.16797 l 1.63672,3.41797 c 0.0393,0.0815 0.0393,0.17636 0,0.25782 l -1.63672,3.41992 c -0.0495,0.10274 -0.15352,0.16802 -0.26757,0.16797 h -5.05079 c -0.11405,5e-5 -0.21805,-0.0652 -0.26757,-0.16797 l -1.63672,-3.41992 c -0.0393,-0.0815 -0.0393,-0.17636 0,-0.25782 l 1.63672,-3.41797 c 0.0483,-0.10024 0.14854,-0.16508 0.25976,-0.16797 z m -37.130991,0.26758 c 0.0072,-2.6e-4 0.01432,-2.6e-4 0.02148,0 h 1.431641 c 0.566362,0 1.101429,0.16007 1.580078,0.47461 0.477329,0.30945 0.856364,0.7398 1.128906,1.27149 0.273224,0.52918 0.410156,1.11024 0.410156,1.72656 0,0.61695 -0.136826,1.1992 -0.410156,1.73242 3e-6,6.7e-4 3e-6,10e-4 0,0.002 -0.272773,0.52767 -0.652442,0.95643 -1.128906,1.26954 3e-6,6.7e-4 3e-6,0.001 0,0.002 -0.478496,0.30988 -1.014384,0.4668 -1.580078,0.4668 h -1.431637 c -0.16396,0 -0.296874,-0.13292 -0.296875,-0.29688 v -6.35156 c -4.08e-4,-0.15592 0.119876,-0.28559 0.275391,-0.29688 z M 64.058594,155.168 c -1.511718,0 -2.751953,1.24023 -2.751953,2.75195 0,1.51172 1.239773,2.74805 2.751953,2.74805 1.51218,0 2.75,-1.2361 2.75,-2.74805 0,-1.51195 -1.238282,-2.75195 -2.75,-2.75195 z m 55.250266,0 c -1.51172,0 -2.75196,1.24023 -2.75196,2.75195 0,1.51172 1.23977,2.74805 2.75196,2.74805 1.51217,0 2.75195,-1.23633 2.75195,-2.74805 0,-1.51172 -1.24024,-2.75195 -2.75195,-2.75195 z m -55.250266,0.98633 c 0.976747,0 1.765625,0.78887 1.765625,1.76562 0,0.97675 -0.789349,1.76367 -1.765625,1.76367 -0.976277,0 -1.765625,-0.78692 -1.765625,-1.76367 0,-0.97675 0.788878,-1.76562 1.765625,-1.76562 z m 55.250266,0 c 0.97674,0 1.76562,0.78887 1.76562,1.76562 0,0.97675 -0.78935,1.76367 -1.76562,1.76367 -0.97628,0 -1.76563,-0.78692 -1.76563,-1.76367 0,-0.97675 0.78888,-1.76562 1.76563,-1.76562 z"
       style="color:#000000;font-style:normal;font-variant:normal;font-weight:normal;font-stretch:normal;font-size:medium;line-height:normal;font-family:sans-serif;font-variant-ligatures:normal;font-variant-position:normal;font-variant-caps:normal;font-variant-numeric:normal;font-variant-alternates:normal;font-feature-settings:normal;text-indent:0;text-align:start;text-decoration:none;text-decoration-line:none;text-decoration-style:solid;text-decoration-color:#000000;letter-spacing:normal;word-spacing:normal;text-transform:none;writing-mode:lr-tb;direction:ltr;text-orientation:mixed;dominant-baseline:auto;baseline-shift:baseline;text-anchor:start;white-space:normal;shape-padding:0;clip-rule:nonzero;display:inline;overflow:visible;visibility:visible;opacity:1;isolation:auto;mix-blend-mode:normal;color-interpolation:sRGB;color-interpolation-filters:linearRGB;solid-color:#000000;solid-opacity:1;vector-effect:none;fill:#ffffff;fill-opacity:1;fill-rule:evenodd;stroke:none;stroke-width:1.57999992;stroke-linecap:round;stroke-linejoin:round;stroke-miterlimit:4;stroke-dasharray:none;stroke-dashoffset:0;stroke-opacity:1;color-rendering:auto;image-rendering:auto;shape-rendering:auto;text-rendering:auto;enable-background:accumulate"
       id="circle863" />
  </g>
</svg>
